<svg xmlns="http://www.w3.org/2000/svg" width="981" height="116" viewBox="0 0 981 116">
  <defs>
    <style>
      .cls-1 {
        fill: #fff;
        fill-rule: evenodd;
      }
    </style>
  </defs>
  <path id="ONLYFUNDR" class="cls-1" d="M13.8,105.1q13.8,12.393,39.257,12.392,25.614,0,39.423-12.392t13.807-35.68V45.632q0-23.287-13.807-35.68T53.055-2.441q-25.45,0-39.257,12.392T-0.008,45.632V69.419Q-0.008,92.709,13.8,105.1ZM41.744,68.587V46.464q0-13.805,11.311-13.806,5.988,0,8.65,3.244t2.661,10.563V68.587q0,7.154-2.745,10.4t-8.567,3.244q-11.314,0-11.311-13.64h0Zm114.942,40.421V94.37a86,86,0,0,0-2.994-23.621h3.659l26.615,40.588a9.4,9.4,0,0,0,8.151,4.325h24.951q6.651,0,6.654-6.654V5.876q0-6.651-6.654-6.654H191.285q-6.654,0-6.653,6.654V19.35A84.183,84.183,0,0,0,187.626,42.8h-3.66L158.35,3.714A9.324,9.324,0,0,0,150.2-.778h-25.95q-6.822,0-6.82,6.654V109.008q0,6.656,6.82,6.654h25.617q6.819,0,6.82-6.654h0ZM279.945,5.876q0-6.651-6.653-6.654H245.014q-6.824,0-6.82,6.654V109.008q0,6.656,6.82,6.654h77.348q6.819,0,6.82-6.654V86.718q0-6.651-6.82-6.654H279.945V5.876Zm96.978-1.331-5.989,15.969a58.33,58.33,0,0,0-3.659,19.628h-3.826l-0.166-2.994a50.516,50.516,0,0,0-3.327-16.634L353.967,4.545a7.534,7.534,0,0,0-7.651-5.323H312.548q-3.991,0-5.323,2.246t0.5,5.739l36.6,70.529v31.272q0,6.656,6.653,6.654h28.112q6.651,0,6.654-6.654V77.736L422.5,7.207q1.828-3.493.416-5.739t-5.24-2.246H384.741q-5.49,0-7.818,5.323h0Zm55.225,1.331V109.008q0,6.656,6.654,6.654h27.945q6.651,0,6.654-6.654V78.4h36.262q6.651,0,6.654-6.654v-18.8q0-6.651-6.654-6.654H473.4V33.156h41.253q6.651,0,6.653-6.654V5.876q0-6.651-6.653-6.654H438.8q-6.656,0-6.654,6.654h0ZM543.1,106.014q13.473,11.478,38.092,11.477t38.092-11.477q13.474-11.478,13.474-32.27V5.876q0-6.651-6.654-6.654H598.157q-6.822,0-6.82,6.654V71.748q0,10.316-10.147,10.313T571.043,71.748V5.876q0-6.651-6.82-6.654H536.444q-6.822,0-6.82,6.654V73.744Q529.624,94.539,543.1,106.014Zm141.723,2.994V94.37a86,86,0,0,0-2.994-23.621h3.659L712.1,111.337a9.4,9.4,0,0,0,8.151,4.325H745.2q6.651,0,6.654-6.654V5.876q0-6.651-6.654-6.654H719.42q-6.655,0-6.654,6.654V19.35a84.182,84.182,0,0,0,3,23.454H712.1L686.484,3.714a9.321,9.321,0,0,0-8.15-4.491h-25.95q-6.822,0-6.82,6.654V109.008q0,6.656,6.82,6.654H678q6.819,0,6.82-6.654h0ZM766.329,5.876V109.008q0,6.656,6.82,6.654h44.579q26.448,0,40.338-12.143t13.889-34.932V46.464q0-22.788-13.972-35.015T817.728-.778H773.149q-6.823,0-6.82,6.654h0Zm60.964,72.192q-2.745,2.831-9.565,2.828h-9.98V33.655h9.98q6.819,0,9.565,2.911t2.744,10.064V67.922Q830.037,75.243,827.293,78.068Zm139.644,5.323a17.321,17.321,0,0,0-9.149-3.16V77.4q23.118-2.16,23.121-32.6V38.645q0-39.423-46.742-39.423H889.754q-6.822,0-6.82,6.654V109.008q0,6.656,6.82,6.654h27.114q6.651,0,6.653-6.654V84.389h1.165a4.738,4.738,0,0,1,3.743,1.414,19.128,19.128,0,0,1,2.744,5.073l6.82,19.462q1.828,5.325,7.652,5.323H975.42q3.825,0,5.24-2.163t-0.25-5.655l-7.319-16.135A22.011,22.011,0,0,0,966.937,83.391ZM931.506,51.62h-7.985V31.825h7.985q7.984,0,7.984,6.654V44.8q0,6.823-7.984,6.82h0Z"/>
</svg>
