<svg xmlns="http://www.w3.org/2000/svg" width="218.739" height="62.752" viewBox="0 0 218.739 62.752">
  <g id="logo-light" transform="translate(-323.041 -354.291)">
    <path id="Path_89" data-name="Path 89" d="M-49.352-17.02V0h-4.426V-7.149H-55.1V0h-4.426V-17.02H-55.1v6.087h1.325V-17.02Zm9.427,0L-37.394,0h-4.523l-.238-3.059h-1.583L-44,0h-4.576l2.258-17.02ZM-42.27-6.076q-.336-2.892-.674-7.149-.676,4.889-.849,7.149Zm15.006-5.792h-4.11V-13.13a2.475,2.475,0,0,0-.158-1.125.58.58,0,0,0-.526-.242.669.669,0,0,0-.6.326,1.892,1.892,0,0,0-.2.989,2.8,2.8,0,0,0,.23,1.283,3.343,3.343,0,0,0,1.251,1.041,12.622,12.622,0,0,1,3.723,2.879A6.6,6.6,0,0,1-26.9-4.352a6.363,6.363,0,0,1-.426,2.681A3.335,3.335,0,0,1-28.968-.226a6.508,6.508,0,0,1-2.838.583,6.346,6.346,0,0,1-3.033-.673A3.3,3.3,0,0,1-36.484-2.03a8.785,8.785,0,0,1-.389-2.954V-6.1h4.11v2.071A2.727,2.727,0,0,0-32.59-2.8a.671.671,0,0,0,.615.273.721.721,0,0,0,.657-.347A1.979,1.979,0,0,0-31.1-3.9a3.192,3.192,0,0,0-.41-1.966,13.069,13.069,0,0,0-2.071-1.545A20.373,20.373,0,0,1-35.769-9a3.714,3.714,0,0,1-.888-1.367,6.014,6.014,0,0,1-.352-2.229,6.183,6.183,0,0,1,.5-2.859A3.36,3.36,0,0,1-34.9-16.868a6.437,6.437,0,0,1,2.691-.51,7.012,7.012,0,0,1,2.938.557,3.076,3.076,0,0,1,1.608,1.4,7.43,7.43,0,0,1,.394,2.875Zm11.932-5.151V0h-4.426V-7.149h-1.325V0h-4.426V-17.02h4.426v6.087h1.325V-17.02Zm1.777,0H-9.14a11.648,11.648,0,0,1,3.17.326,3.142,3.142,0,0,1,1.74,1.318,5.928,5.928,0,0,1,.662,3.2,3.443,3.443,0,0,1-.468,2.08,3.262,3.262,0,0,1-1.845.9A3.275,3.275,0,0,1-3.8-8.042a4.442,4.442,0,0,1,.547,2.467V-4a6.267,6.267,0,0,1-.394,2.556A2.126,2.126,0,0,1-4.9-.305,12.886,12.886,0,0,1-8.436,0h-5.12Zm4.426,2.912v3.785q.284-.011.442-.011.652,0,.831-.321a5.248,5.248,0,0,0,.179-1.834,2.965,2.965,0,0,0-.147-1.12.706.706,0,0,0-.384-.4,3.411,3.411,0,0,0-.922-.1Zm0,6.434v4.762a1.889,1.889,0,0,0,1.193-.294A2.064,2.064,0,0,0-7.68-4.5V-6.087a2.242,2.242,0,0,0-.231-1.325A2.074,2.074,0,0,0-9.13-7.674ZM2.76-17.02V0H-1.666V-17.02Zm10.691,0v3.406H10.823V0H6.4V-13.614H3.779V-17.02Zm4.8,0h7.5v3.406h-3.07v3.227h2.733v3.238H22.681V0H18.255Zm12.994,0V0H26.823V-17.02Zm6.2,0V-3.406h2.691V0h-7.11V-17.02Zm3.764,0h7.38v3.406H45.641v3.227h2.765v3.238H45.641v3.743h3.248V0H41.215Zm18.324,5.151h-4.11V-13.13a2.475,2.475,0,0,0-.158-1.125.58.58,0,0,0-.526-.242.669.669,0,0,0-.6.326,1.892,1.892,0,0,0-.2.989,2.8,2.8,0,0,0,.23,1.283,3.343,3.343,0,0,0,1.251,1.041,12.622,12.622,0,0,1,3.723,2.879,6.6,6.6,0,0,1,.767,3.627,6.363,6.363,0,0,1-.426,2.681A3.335,3.335,0,0,1,57.836-.226,6.508,6.508,0,0,1,55,.357a6.346,6.346,0,0,1-3.033-.673A3.3,3.3,0,0,1,50.322-2.03a8.785,8.785,0,0,1-.389-2.954V-6.1h4.11v2.071a2.727,2.727,0,0,0,.173,1.23.671.671,0,0,0,.615.273.721.721,0,0,0,.657-.347A1.979,1.979,0,0,0,55.7-3.9a3.192,3.192,0,0,0-.41-1.966,13.069,13.069,0,0,0-2.071-1.545A20.374,20.374,0,0,1,51.034-9a3.714,3.714,0,0,1-.888-1.367,6.014,6.014,0,0,1-.352-2.229,6.183,6.183,0,0,1,.5-2.859,3.36,3.36,0,0,1,1.614-1.414,6.437,6.437,0,0,1,2.691-.51,7.012,7.012,0,0,1,2.938.557,3.076,3.076,0,0,1,1.608,1.4,7.43,7.43,0,0,1,.394,2.875Z" transform="translate(481.851 386.667)"/>
    <path id="Path_90" data-name="Path 90" d="M-57.832,0V-9.619h2.689a4.183,4.183,0,0,1,2.121.538,3.722,3.722,0,0,1,1.463,1.543,4.858,4.858,0,0,1,.525,2.286v.885a4.858,4.858,0,0,1-.522,2.286,3.713,3.713,0,0,1-1.47,1.539A4.309,4.309,0,0,1-55.2,0Zm.813-8.932V-.687H-55.2A3.138,3.138,0,0,0-52.758-1.7a3.9,3.9,0,0,0,.918-2.727v-.846a3.806,3.806,0,0,0-.9-2.658,3.085,3.085,0,0,0-2.385-1ZM-45.289,0H-46.1V-9.619h.813Zm12.245-1.143A2.723,2.723,0,0,1-34.368-.2a5.731,5.731,0,0,1-2.018.337A3.748,3.748,0,0,1-38.395-.41a3.606,3.606,0,0,1-1.361-1.533,5.193,5.193,0,0,1-.489-2.273V-5.43a4.646,4.646,0,0,1,1.011-3.161A3.42,3.42,0,0,1-36.519-9.75a3.607,3.607,0,0,1,2.392.756A3.122,3.122,0,0,1-33.05-6.91h-.813a2.5,2.5,0,0,0-.862-1.607,2.775,2.775,0,0,0-1.787-.547,2.614,2.614,0,0,0-2.134.959,4.156,4.156,0,0,0-.786,2.7v1.137a4.751,4.751,0,0,0,.373,1.94,2.96,2.96,0,0,0,1.07,1.306,2.829,2.829,0,0,0,1.6.463,4.471,4.471,0,0,0,1.8-.33,1.943,1.943,0,0,0,.727-.509v-2.48h-2.583v-.687h3.4ZM-27.054,0h-.813V-9.619h.813Zm11.829-8.932h-3.3V0h-.813V-8.932h-3.29v-.687h7.4ZM-6.309-2.7h-4.367L-11.667,0h-.852l3.64-9.619h.773L-4.466,0h-.846Zm-4.116-.687h3.858L-8.5-8.628ZM.459-.687h4.75V0H-.36V-9.619H.459ZM20.742-4.5H16.256V0h-.813V-9.619H21.4v.687H16.256v3.746h4.486Zm6,4.5h-.813V-9.619h.813Zm6.121-.687h4.75V0H32.039V-9.619h.819ZM47.172-4.611h-4.5V-.687h5.173V0H41.86V-9.619h5.952v.687h-5.14V-5.3h4.5ZM57.693-2.365a1.557,1.557,0,0,0-.562-1.265,5.93,5.93,0,0,0-2.055-.885A7.2,7.2,0,0,1,52.9-5.43a2.16,2.16,0,0,1-.978-1.837,2.152,2.152,0,0,1,.908-1.794,3.73,3.73,0,0,1,2.322-.69,3.852,3.852,0,0,1,1.714.37A2.805,2.805,0,0,1,58.039-8.35a2.707,2.707,0,0,1,.416,1.473h-.819a2.021,2.021,0,0,0-.674-1.587,2.623,2.623,0,0,0-1.81-.6,2.851,2.851,0,0,0-1.757.493,1.538,1.538,0,0,0-.654,1.287,1.456,1.456,0,0,0,.588,1.2,5.45,5.45,0,0,0,1.883.817,8.85,8.85,0,0,1,1.962.734,2.8,2.8,0,0,1,1,.908,2.273,2.273,0,0,1,.337,1.249A2.174,2.174,0,0,1,57.6-.555a3.869,3.869,0,0,1-2.4.687,4.694,4.694,0,0,1-1.866-.363,2.851,2.851,0,0,1-1.288-1.017,2.627,2.627,0,0,1-.439-1.5h.813a1.92,1.92,0,0,0,.76,1.6,3.216,3.216,0,0,0,2.022.588,3,3,0,0,0,1.8-.5,1.549,1.549,0,0,0,.686-1.31Z" transform="translate(481.851 402.667)"/>
    <g id="Group_99" data-name="Group 99">
      <g id="Group_95" data-name="Group 95">
        <g id="Group_93" data-name="Group 93">
          <path id="Path_81" data-name="Path 81" d="M333.575,395.045a9.393,9.393,0,0,1-6.641-16.035,1.864,1.864,0,1,1,2.635,2.636,5.666,5.666,0,1,0,8.013,8.013l20.967-20.968a5.666,5.666,0,1,0-8.012-8.013l-12.011,12.01a1.864,1.864,0,1,1-2.635-2.636L347.9,358.043a9.392,9.392,0,1,1,13.283,13.283l-20.968,20.968a9.332,9.332,0,0,1-6.64,2.751Z" fill="#bb2e51" stroke="#bb2e51" stroke-width="2"/>
        </g>
        <path id="Path_82" data-name="Path 82" d="M341.467,385.773l1.189,4.081,2.681-2.682-2.635-2.635Z" opacity="0.2"/>
        <path id="Path_83" data-name="Path 83" d="M341.917,385.324l2.635,2.635,2.292-2.292-1.639-3.632Z" opacity="0.2"/>
        <g id="Group_94" data-name="Group 94">
          <path id="Path_84" data-name="Path 84" d="M354.543,416.043a9.324,9.324,0,0,1-6.641-2.751l-12.011-12.01a1.863,1.863,0,1,1,2.635-2.635l12.011,12.01a5.666,5.666,0,1,0,8.012-8.013l-20.967-20.968a5.666,5.666,0,0,0-8.013,8.013,1.863,1.863,0,0,1-2.635,2.635,9.393,9.393,0,1,1,13.283-13.283l20.968,20.968a9.393,9.393,0,0,1-6.642,16.034Z" fill="#bb2e51" stroke="#bb2e51" stroke-width="2"/>
        </g>
      </g>
      <g id="Group_98" data-name="Group 98">
        <g id="Group_96" data-name="Group 96">
          <path id="Path_85" data-name="Path 85" d="M400.129,376.289a9.393,9.393,0,0,1,6.641,16.035,1.864,1.864,0,1,1-2.635-2.636,5.666,5.666,0,1,0-8.013-8.012l-20.967,20.968a5.665,5.665,0,0,0,8.012,8.012l12.011-12.01a1.864,1.864,0,1,1,2.635,2.636l-12.01,12.01a9.393,9.393,0,0,1-13.284-13.284l20.968-20.967a9.329,9.329,0,0,1,6.642-2.752Z" fill="#bb2e51" stroke="#bb2e51" stroke-width="2"/>
        </g>
        <path id="Path_86" data-name="Path 86" d="M392.237,385.561l-1.189-4.081-2.681,2.681L391,386.8Z" opacity="0.2"/>
        <path id="Path_87" data-name="Path 87" d="M391.787,386.011l-2.635-2.635-2.292,2.292,1.64,3.632Z" opacity="0.2"/>
        <g id="Group_97" data-name="Group 97">
          <path id="Path_88" data-name="Path 88" d="M379.161,355.291a9.329,9.329,0,0,1,6.642,2.752l12.01,12.009a1.864,1.864,0,1,1-2.635,2.636l-12.011-12.01a5.665,5.665,0,0,0-8.012,8.012l20.967,20.968a5.666,5.666,0,1,0,8.013-8.012,1.864,1.864,0,0,1,2.635-2.636,9.393,9.393,0,0,1-13.283,13.283l-20.968-20.967a9.394,9.394,0,0,1,6.642-16.035Z" fill="#bb2e51" stroke="#bb2e51" stroke-width="2"/>
        </g>
      </g>
    </g>
  </g>
</svg>
