<svg width="192" height="119" viewBox="0 0 192 119" fill="none" xmlns="http://www.w3.org/2000/svg">
<path d="M39.3064 23.8033C70.6175 -6.72969 121.383 -6.72969 152.694 23.8033L156.462 27.478C158.028 29.0047 158.028 31.4799 156.462 33.0065L143.571 45.577C142.789 46.3403 141.519 46.3403 140.737 45.577L135.551 40.5201C113.708 19.2195 78.2925 19.2195 56.4491 40.5201L50.8957 45.9356C50.1129 46.6989 48.8438 46.6989 48.061 45.9356L35.1703 33.3652C33.6047 31.8385 33.6047 29.3633 35.1703 27.8367L39.3064 23.8033ZM179.353 49.8003L190.826 60.988C192.391 62.5147 192.391 64.9898 190.826 66.5165L139.094 116.963C137.529 118.49 134.991 118.49 133.425 116.963V116.963L96.709 81.1598C96.3176 80.7781 95.6831 80.7781 95.2917 81.1598V81.1598L58.5765 116.963C57.011 118.49 54.4727 118.49 52.9072 116.963V116.963L1.17416 66.5159C-0.391388 64.9892 -0.391388 62.514 1.17416 60.9874L12.647 49.7996C14.2125 48.273 16.7508 48.273 18.3163 49.7996L55.0328 85.6038C55.4242 85.9854 56.0587 85.9854 56.4501 85.6038V85.6038L93.1647 49.7996C94.7302 48.273 97.2685 48.2729 98.8341 49.7995V49.7995L135.551 85.6037C135.942 85.9854 136.577 85.9854 136.968 85.6037L173.684 49.8003C175.249 48.2736 177.788 48.2736 179.353 49.8003Z" fill="white"/>
</svg>
